Coordinates
version=1
nRows=9
nColumns=63
inDegrees=yes

Units are S.I. units (second, meters, Newtons, ...)
If the header above contains a line with 'inDegrees', this indicates whether rotational values are in degrees (yes) or radians (no).

endheader
time	pelvis_tilt	pelvis_list	pelvis_rotation	pelvis_tx	pelvis_ty	pelvis_tz	hip_flexion_r	hip_adduction_r	hip_rotation_r	knee_angle_r	knee_angle_r_beta	ankle_angle_r	subtalar_angle_r	mtp_angle_r	hip_flexion_l	hip_adduction_l	hip_rotation_l	knee_angle_l	knee_angle_l_beta	ankle_angle_l	subtalar_angle_l	mtp_angle_l	L5_S1_Flex_Ext	L5_S1_Lat_Bending	L5_S1_axial_rotation	L4_L5_Flex_Ext	L4_L5_Lat_Bending	L4_L5_axial_rotation	L3_L4_Flex_Ext	L3_L4_Lat_Bending	L3_L4_axial_rotation	L2_L3_Flex_Ext	L2_L3_Lat_Bending	L2_L3_axial_rotation	L1_L2_Flex_Ext	L1_L2_Lat_Bending	L1_L2_axial_rotation	L1_T12_Flex_Ext	L1_T12_Lat_Bending	L1_T12_axial_rotation	Abs_r3	Abs_r2	Abs_r1	Abs_t1	Abs_t2	neck_flexion	neck_bending	neck_rotation	arm_flex_r	arm_add_r	arm_rot_r	elbow_flex_r	pro_sup_r	wrist_flex_r	wrist_dev_r	arm_flex_l	arm_add_l	arm_rot_l	elbow_flex_l	pro_sup_l	wrist_flex_l	wrist_dev_l
3.583333	-1.547989	-5.002547	100.263910	0.207604	1.001976	0.477822	2.152313	-3.051768	-20.985999	7.361278	0.128479	17.765192	16.188305	0.000000	2.541277	3.114557	-4.036369	3.246885	0.056669	17.461340	5.998374	0.000000	0.121958	-0.157301	-0.284108	0.226489	-0.209210	-0.301865	0.200365	-0.382461	-0.301865	0.139386	-0.382461	-0.248595	0.113250	-0.320768	-0.230838	0.069687	-0.243659	-0.213081	0.871135	-1.779417	-1.580124	0.000000	0.000000	27.456767	3.003466	6.147134	23.132155	-6.088146	81.939788	37.508005	89.218132	24.994116	19.074161	23.253728	-5.173914	78.020330	39.601280	86.055024	18.371685	16.577287
3.600000	-1.434763	-5.042689	100.636130	0.206896	1.001889	0.478199	2.187794	-2.946364	-21.124847	7.314640	0.127665	17.827281	16.011569	0.000000	2.685707	3.027944	-3.819327	3.338460	0.058267	17.509881	6.137177	0.000000	0.122606	-0.143218	-0.317990	0.227691	-0.190480	-0.337865	0.201429	-0.348221	-0.337865	0.140126	-0.348221	-0.278241	0.113852	-0.292051	-0.258367	0.070057	-0.221845	-0.238493	0.875761	-1.620114	-1.768566	0.000000	0.000000	27.501821	2.946170	6.105372	22.623928	-6.291392	80.058910	37.657374	89.266247	26.064651	20.320689	23.271276	-5.121120	77.564299	39.740875	87.927895	18.040393	16.544189
3.616667	-1.346547	-5.068252	100.938056	0.206316	1.001904	0.478444	2.207957	-2.851643	-21.166419	7.250421	0.126544	17.895022	15.783691	0.000000	2.786779	2.962112	-3.567632	3.381654	0.059021	17.567749	6.213086	0.000000	0.121266	-0.133144	-0.329552	0.225202	-0.177081	-0.350149	0.199227	-0.323726	-0.350149	0.138595	-0.323726	-0.288358	0.112607	-0.271507	-0.267761	0.069291	-0.206240	-0.247164	0.866189	-1.506150	-1.832870	0.000000	0.000000	27.543254	2.903397	6.014627	21.939094	-6.527355	77.827699	37.803589	89.540456	26.938555	21.243150	23.172872	-5.083210	76.922476	39.809717	89.554027	17.455115	16.333768
3.633333	-1.300547	-5.075648	101.165966	0.205941	1.002021	0.478523	2.202964	-2.781579	-21.125592	7.172334	0.125181	17.973869	15.518687	0.000000	2.835774	2.929666	-3.255352	3.375562	0.058915	17.601203	6.180913	0.000000	0.117698	-0.130324	-0.321718	0.218576	-0.173330	-0.341826	0.193365	-0.316869	-0.341826	0.134517	-0.316869	-0.281504	0.109294	-0.265756	-0.261396	0.067252	-0.201871	-0.241289	0.840703	-1.474246	-1.789301	0.000000	0.000000	27.576533	2.881265	5.841665	21.109673	-6.697928	75.312825	37.889893	89.785190	27.430490	21.678438	23.011927	-5.073748	76.395048	39.789253	89.914751	16.632079	15.920142
3.650000	-1.299069	-5.064280	101.327419	0.205743	1.002202	0.478402	2.158502	-2.734435	-20.938553	7.066591	0.123335	18.064847	15.128884	0.000000	2.822162	2.934824	-2.911849	3.310933	0.057787	17.592409	6.075883	0.000000	0.111745	-0.134454	-0.292963	0.207521	-0.178824	-0.311273	0.183586	-0.326912	-0.311273	0.127713	-0.326912	-0.256342	0.103766	-0.274179	-0.238032	0.063851	-0.208270	-0.219722	0.798182	-1.520974	-1.629370	0.000000	0.000000	27.605560	2.892718	5.624969	20.079661	-6.772148	72.198569	37.936669	89.844035	27.585176	21.676364	22.809460	-5.059008	75.993426	39.641922	88.772844	15.620951	15.322157
3.666667	-1.352019	-5.051051	101.435760	0.205748	1.002410	0.478104	2.096221	-2.736396	-20.782399	6.959826	0.121472	18.179187	14.799941	0.000000	2.773263	2.987787	-2.449795	3.208208	0.055994	17.497795	5.769407	0.000000	0.106465	-0.147269	-0.258012	0.197715	-0.195868	-0.274138	0.174911	-0.358070	-0.274138	0.121678	-0.358070	-0.225761	0.098863	-0.300311	-0.209635	0.060834	-0.228119	-0.193509	0.760466	-1.665935	-1.434988	0.000000	0.000000	27.621644	2.965163	5.400800	19.009705	-6.655196	68.899204	37.845792	89.514705	27.195140	20.988958	22.534336	-5.050085	75.564392	39.322635	86.397744	14.662931	14.543828
3.683333	-1.453641	-5.026805	101.467600	0.205965	1.002617	0.477658	2.013459	-2.780264	-20.596874	6.855368	0.119649	18.310987	14.466688	0.000000	2.679355	3.081907	-1.943592	3.066174	0.053515	17.322792	5.314247	0.000000	0.100544	-0.167507	-0.205548	0.186721	-0.222784	-0.218395	0.165184	-0.407276	-0.218395	0.114912	-0.407276	-0.179854	0.093365	-0.341579	-0.167008	0.057451	-0.259468	-0.154161	0.718178	-1.894868	-1.143195	0.000000	0.000000	27.629461	3.028613	5.087880	17.943280	-6.406114	65.441946	37.631926	88.688435	26.254152	19.649773	22.389427	-4.997764	75.864364	38.743229	82.228864	13.655904	13.334063
3.700000	-1.603530	-5.002584	101.423881	0.206382	1.002777	0.477084	1.926597	-2.868778	-20.352114	6.763057	0.118038	18.445152	14.073221	0.000000	2.555987	3.217789	-1.449412	2.893287	0.050497	17.080509	4.778778	0.000000	0.095702	-0.194568	-0.142358	0.177729	-0.258776	-0.151255	0.157229	-0.473073	-0.151255	0.109378	-0.473073	-0.124563	0.088869	-0.396763	-0.115666	0.054684	-0.301386	-0.106769	0.683593	-2.200994	-0.791753	0.000000	0.000000	27.633193	3.082194	4.723840	16.954181	-6.011425	61.853517	37.275330	87.733388	24.744478	17.642402	22.274327	-4.936744	76.304048	37.953623	77.546049	12.668695	11.831069
3.716667	-1.796623	-4.982044	101.293816	0.206993	1.002866	0.476412	1.845441	-3.000009	-20.049377	6.687949	0.116727	18.569753	13.632293	0.000000	2.411079	3.391115	-0.992913	2.696431	0.047062	16.792360	4.173431	0.000000	0.092481	-0.227184	-0.071507	0.171746	-0.302154	-0.075976	0.151937	-0.552374	-0.075976	0.105696	-0.552374	-0.062569	0.085878	-0.463273	-0.058099	0.052843	-0.351908	-0.053630	0.660581	-2.569947	-0.397700	0.000000	0.000000	27.635253	3.130605	4.344308	16.113052	-5.513493	58.283229	36.753674	86.780059	22.709056	15.012456	22.139776	-4.918144	76.615101	37.065642	73.389967	11.644117	10.138695
